<svg width="42" height="43" viewBox="0 0 42 43" fill="none" xmlns="http://www.w3.org/2000/svg">
<mask id="mask0" mask-type="alpha" maskUnits="userSpaceOnUse" x="0" y="0" width="42" height="43">
<path d="M42 21.0017C42.0005 23.7596 41.4576 26.4905 40.4026 29.0385C39.3475 31.5865 37.8009 33.9018 35.851 35.852C33.9011 37.8022 31.5861 39.3493 29.0382 40.4047C26.4904 41.4602 23.7596 42.0035 21.0017 42.0035C15.4317 42.0035 10.0898 39.7908 6.15126 35.8522C2.21267 31.9136 0 26.5717 0 21.0017C0 15.4317 2.21267 10.0898 6.15126 6.15126C10.0898 2.21267 15.4317 0 21.0017 0C23.7596 -3.78225e-08 26.4904 0.54325 29.0382 1.59873C31.5861 2.65421 33.9011 4.20124 35.851 6.15147C37.8009 8.10171 39.3475 10.4169 40.4026 12.965C41.4576 15.513 42.0005 18.2439 42 21.0017Z" fill="white"/>
</mask>
<g mask="url(#mask0)">
<mask id="mask1" mask-type="alpha" maskUnits="userSpaceOnUse" x="0" y="-2" width="43" height="43">
<path d="M43 19.5018C43 22.325 42.4439 25.1205 41.3635 27.7288C40.2832 30.3371 38.6996 32.707 36.7033 34.7033C34.707 36.6996 32.3371 38.2832 29.7288 39.3635C27.1205 40.4439 24.325 41 21.5018 41C15.7992 41 10.3301 38.7346 6.29773 34.7023C2.26536 30.6699 0 25.2008 0 19.4982C-3.87231e-08 16.6747 0.556185 13.8789 1.63679 11.2704C2.7174 8.66186 4.30127 6.29176 6.29794 4.29542C8.29461 2.29908 10.665 0.715603 13.2737 -0.364575C15.8824 -1.44475 18.6783 -2.00047 21.5018 -2C24.3253 -2 27.1211 -1.44382 29.7296 -0.363206C32.3381 0.717404 34.7082 2.30127 36.7046 4.29794C38.7009 6.29461 40.2844 8.66497 41.3646 11.2737C42.4447 13.8824 43.0005 16.6783 43 19.5018Z" fill="white"/>
</mask>
<g mask="url(#mask1)">
<path d="M32.2843 44.3306L21.405 44.4964L10.7355 44.3306C10.4549 43.3747 10.4304 42.3618 10.6645 41.3934C10.9453 40.2665 11.6796 39.0246 13.3107 38.0095C14.1572 37.5017 15.0676 37.1091 16.0178 36.842C16.2851 36.7676 16.5626 36.6931 16.857 36.6254C17.1514 36.5578 17.5135 36.4799 17.8722 36.419C18.2309 36.3581 18.6065 36.2938 19.0024 36.2431L19.0667 36.2769C18.975 34.9215 18.6866 33.5867 18.2106 32.3143L24.4505 32.5614C24.1123 33.698 23.9604 34.8819 24.0005 36.0671L24.0275 36.0468C24.7365 36.1355 25.4402 36.2621 26.1357 36.4258L26.5756 36.5341C26.9411 36.6333 27.2862 36.7382 27.6111 36.8488C28.1851 37.0408 28.7411 37.2831 29.2726 37.5729C30.5957 38.2319 31.6302 39.3544 32.1794 40.7267C32.6319 41.8794 32.669 43.1536 32.2843 44.3306Z" fill="#CD8B6D"/>
<path d="M32.5416 42.8924C32.5416 43.0582 32.5213 43.2308 32.5044 43.356C32.4649 43.6843 32.3912 44.0075 32.2845 44.3204L21.4052 44.4862L10.7357 44.3204C10.6015 43.8813 10.5275 43.4259 10.5158 42.9669C10.5158 42.9161 10.5158 42.8687 10.5158 42.8146C10.5042 42.3329 10.5554 41.8517 10.668 41.3832C10.7271 41.1536 10.7994 40.9277 10.8846 40.7064C10.9354 40.588 10.9929 40.4662 11.0504 40.3477C11.5699 39.3629 12.3539 38.5425 13.3143 37.979L13.4699 37.8809L13.6966 37.7557C14.4374 37.3601 15.2177 37.0436 16.0248 36.8115C16.2921 36.7371 16.5696 36.6627 16.864 36.595C17.1584 36.5273 17.5205 36.4495 17.8792 36.3885C19.1718 38.226 22.0346 40.7132 26.5826 36.5036C26.948 36.6029 27.2932 36.7078 27.618 36.8183C28.1921 37.0103 28.7481 37.2527 29.2795 37.5425C29.3641 37.5865 29.4453 37.6338 29.5266 37.6812C29.7059 37.7861 29.865 37.891 30.0308 38.0027C31.006 38.6669 31.7574 39.6106 32.1863 40.7098C32.2337 40.8316 32.2777 40.9534 32.3115 41.0719C32.3543 41.1899 32.3882 41.3109 32.413 41.434C32.5247 41.9116 32.568 42.4026 32.5416 42.8924Z" fill="#FFAC30"/>
<path d="M30.024 38.023C26.9785 39.7589 23.5202 41.0685 20.231 40.7471C17.7472 40.4732 15.3963 39.4847 13.4632 37.9012L13.6899 37.776C16.0587 39.583 19.0094 40.6861 21.9027 40.3511C24.6673 40.0127 27.141 38.9807 29.5165 37.7015C29.6992 37.8166 29.865 37.9113 30.024 38.023Z" fill="white"/>
<path d="M32.4062 41.4408C28.9213 42.5399 25.2675 43.0052 21.6183 42.8146C18.5728 42.6217 15.4799 42.3443 12.5799 41.3629C12.0046 41.1667 11.4406 40.9535 10.8879 40.7234C10.9387 40.6049 10.9962 40.4831 11.0537 40.3647C14.633 41.6872 18.406 42.4098 22.2206 42.5033C25.4256 42.6425 28.6307 42.2292 31.6956 41.2817C31.9054 41.2174 32.1118 41.1464 32.3182 41.0787C32.3564 41.1971 32.3858 41.3181 32.4062 41.4408Z" fill="white"/>
<path d="M13.6729 16.9819C13.6729 16.9819 10.7492 12.0447 9.54111 16.278C8.33306 20.5113 11.2534 22.5213 13.1687 22.1186C15.084 21.7159 13.6729 16.9819 13.6729 16.9819Z" fill="#CD8B6D"/>
<path d="M13.3174 17.7872C13.3174 17.7872 11.304 14.6639 10.6103 15.9227C9.91661 17.1815 10.1061 18.7956 10.1061 18.7956C10.1061 18.7956 10.5088 17.0326 11.8184 18.0376C11.8184 18.0376 10.5596 20.8598 13.1279 20.068C13.1178 20.0545 14.177 19.2051 13.3174 17.7872Z" fill="#B66C50"/>
<path d="M29.0965 16.3762C29.0965 16.3762 32.0168 11.439 33.2283 15.6723C34.4397 19.9056 31.516 21.919 29.6007 21.5129C27.6854 21.1069 29.0965 16.3762 29.0965 16.3762Z" fill="#CD8B6D"/>
<path d="M29.1406 17.5131C29.1406 17.5131 31.171 14.3898 31.8478 15.652C32.5245 16.9142 32.352 18.5215 32.352 18.5215C32.352 18.5215 31.9493 16.7585 30.6397 17.7669C30.6397 17.7669 31.8985 20.5857 29.3301 19.7804C29.3437 19.777 28.2845 18.9208 29.1406 17.5131Z" fill="#B66C50"/>
<path d="M13.8693 10.1836C13.5783 10.478 13.1654 18.8464 13.3651 22.0713C13.5647 25.2962 14.7762 34.3616 22.0313 34.3616C29.2864 34.3616 30.491 21.9698 28.7788 10.989C28.7822 10.989 21.0262 2.92852 13.8693 10.1836Z" fill="#E8B299"/>
<path d="M16.2684 15.652C15.392 16.278 14.8912 17.8042 15.3988 18.7855C15.4054 18.7953 15.4149 18.8028 15.426 18.807C15.4371 18.8112 15.4493 18.8119 15.4607 18.8089C15.4722 18.8059 15.4825 18.7995 15.4902 18.7905C15.4979 18.7814 15.5026 18.7702 15.5037 18.7584C15.4602 18.3141 15.5052 17.8656 15.6358 17.4388C15.7665 17.0119 15.9803 16.6151 16.265 16.2712C16.4363 16.0801 16.6446 15.9258 16.8772 15.8176C17.1099 15.7094 17.3621 15.6496 17.6186 15.6418C18.1905 15.5945 18.4477 16.2002 18.8977 16.41C18.919 16.4218 18.9432 16.4273 18.9675 16.4256C18.9918 16.4238 19.0151 16.4151 19.0345 16.4004C19.0539 16.3857 19.0685 16.3656 19.0767 16.3427C19.0849 16.3197 19.0862 16.2949 19.0804 16.2712C18.7285 15.0023 17.1516 15.026 16.2684 15.652Z" fill="#390A0A"/>
<path d="M19.3139 18.4945C19.3139 20.1357 18.4578 21.4656 17.3986 21.4656C16.3394 21.4656 15.4867 20.1357 15.4867 18.4945C15.4867 16.8533 16.3428 15.5234 17.3986 15.5234C18.4544 15.5234 19.3139 16.8533 19.3139 18.4945Z" fill="white"/>
<path d="M18.9079 18.5926C18.9079 19.8142 18.2548 20.8057 17.4494 20.8057C16.644 20.8057 15.9943 19.8142 15.9943 18.5926C15.9943 17.371 16.644 16.3795 17.4494 16.3795C18.2548 16.3795 18.9079 17.371 18.9079 18.5926Z" fill="#3D79CA"/>
<path d="M18.6778 18.6163C18.6778 19.6484 18.1397 20.4842 17.4799 20.4842C16.82 20.4842 16.2853 19.6484 16.2853 18.6163C16.2853 17.5842 16.8234 16.7518 17.4799 16.7518C18.1363 16.7518 18.6778 17.5876 18.6778 18.6163Z" fill="#390A0A"/>
<path d="M18.9077 17.009C18.9077 17.212 18.5693 17.3778 18.1531 17.3778C17.7369 17.3778 17.3985 17.212 17.3985 17.009C17.3985 16.8059 17.7369 16.6435 18.1531 16.6435C18.5693 16.6435 18.9077 16.8059 18.9077 17.009Z" fill="white"/>
<path d="M26.5487 15.652C27.4251 16.278 27.9293 17.8042 27.4183 18.7855C27.4117 18.7953 27.4021 18.8028 27.391 18.807C27.3799 18.8112 27.3678 18.8119 27.3563 18.8089C27.3449 18.8059 27.3346 18.7995 27.3269 18.7905C27.3192 18.7814 27.3145 18.7702 27.3134 18.7584C27.3584 18.314 27.3142 17.8652 27.1834 17.4381C27.0527 17.011 26.838 16.6143 26.552 16.2712C26.3808 16.0801 26.1725 15.9258 25.9399 15.8176C25.7072 15.7094 25.455 15.6496 25.1985 15.6418C24.6266 15.5945 24.3694 16.2002 23.9194 16.41C23.8982 16.4208 23.8744 16.4254 23.8507 16.4233C23.827 16.4211 23.8044 16.4122 23.7856 16.3976C23.7668 16.3831 23.7525 16.3634 23.7444 16.3411C23.7364 16.3187 23.7348 16.2945 23.74 16.2712C24.0886 15.0023 25.6688 15.026 26.5487 15.652Z" fill="#390A0A"/>
<path d="M27.1951 18.4945C27.1951 20.1357 26.339 21.4656 25.2832 21.4656C24.2274 21.4656 23.3679 20.1357 23.3679 18.4945C23.3679 16.8533 24.224 15.5234 25.2832 15.5234C26.3424 15.5234 27.1951 16.8533 27.1951 18.4945Z" fill="white"/>
<path d="M26.7889 18.5926C26.7889 19.8142 26.1358 20.8057 25.3304 20.8057C24.5251 20.8057 23.8754 19.8142 23.8754 18.5926C23.8754 17.371 24.5285 16.3795 25.3304 16.3795C26.1324 16.3795 26.7889 17.371 26.7889 18.5926Z" fill="#3D79CA"/>
<path d="M26.5587 18.6163C26.5587 19.6484 26.0241 20.4842 25.3642 20.4842C24.7043 20.4842 24.1697 19.6484 24.1697 18.6163C24.1697 17.5842 24.7043 16.7518 25.3642 16.7518C26.0241 16.7518 26.5587 17.5876 26.5587 18.6163Z" fill="#390A0A"/>
<path d="M26.7889 17.009C26.7889 17.212 26.4505 17.3778 26.0342 17.3778C25.618 17.3778 25.283 17.212 25.283 17.009C25.283 16.8059 25.6214 16.6435 26.0342 16.6435C26.4471 16.6435 26.7889 16.8059 26.7889 17.009Z" fill="white"/>
<path d="M15.0027 15.9667C15.0027 15.9667 16.4781 13.0937 19.5168 15.6283C19.5168 15.6384 17.0533 14.7349 15.0027 15.9667Z" fill="#7C2C14"/>
<path d="M23.3747 15.6385C23.3747 15.6385 24.8535 12.7655 27.8922 15.3001C27.8922 15.3102 25.4287 14.4067 23.3747 15.6385Z" fill="#7C2C14"/>
<path d="M29.9225 15.1444C29.9225 15.0226 29.8954 14.9041 29.8819 14.806C29.8683 14.7079 29.848 14.5827 29.8413 14.4913C29.6755 13.0531 31.3268 11.1818 30.518 9.78766C30.271 9.36129 29.7939 9.21916 29.3607 9.07704C27.7026 8.539 28.261 6.56279 28.2948 5.31751C28.3253 4.42416 28.0613 2.9014 26.992 2.63407L26.833 2.59686C26.7036 2.5709 26.5723 2.55618 26.4404 2.55286C26.0444 2.55313 25.6523 2.63131 25.2865 2.78297C25.0293 2.88449 23.2562 4.16022 23.1039 3.77445C22.3764 2.00128 21.0025 1.5783 19.7775 2.05204C19.5567 2.14086 19.3467 2.25438 19.1515 2.39043C18.4582 2.87143 17.9301 3.55439 17.6389 4.34633C17.578 4.49861 17.3716 7.39185 16.529 6.50188C16.1466 6.10258 15.6593 5.43257 15.0603 5.31075C13.7068 5.04004 12.898 5.85556 12.1468 6.90119C11.3313 8.03818 10.8135 9.60831 11.1147 11.0126C11.3144 11.9528 11.6127 12.8693 12.0047 13.7468C12.0724 13.8991 12.1333 14.0548 12.1942 14.2172C12.2551 14.3796 12.2788 14.4507 12.3194 14.5556C12.5081 15.1892 12.7716 15.7981 13.1044 16.3694C13.087 16.4048 13.0801 16.4445 13.0845 16.4838C13.089 16.523 13.1046 16.5602 13.1296 16.5908C13.1545 16.6215 13.1877 16.6443 13.2252 16.6567C13.2628 16.669 13.3031 16.6703 13.3413 16.6604C14.6103 16.4167 15.3175 14.894 15.6559 13.7739C15.8795 13.1284 16.0227 12.4579 16.0823 11.7774C16.5213 12.0857 16.9978 12.337 17.5002 12.5252C17.9571 12.6739 18.4485 12.68 18.9091 12.5428C19.3696 12.4056 19.7775 12.1316 20.0787 11.7571C20.7859 12.5388 22.0853 12.8839 22.999 12.2613C23.3216 11.9932 23.5504 11.6293 23.6521 11.2224C23.7466 10.8543 23.8155 10.48 23.8585 10.1024C24.2138 8.41041 26.5216 9.10749 26.8837 10.1802C27.1544 10.9788 26.8499 12.0041 26.8837 12.8332C26.9176 13.557 27.0851 14.2683 27.3778 14.9312C27.6857 15.6283 28.393 16.9345 29.3844 16.6604C29.9665 16.498 29.9935 15.7738 29.9326 15.1579L29.9225 15.1444Z" fill="#A6562F"/>
<path d="M13.436 14.1022C13.093 14.3219 12.712 14.4757 12.3125 14.5556C12.2719 14.4372 12.2279 14.3187 12.1873 14.2172C13.2465 13.8788 14.5121 12.5591 14.7625 11.7233C14.9031 11.3507 14.9625 10.9524 14.9368 10.555C14.9111 10.1576 14.8009 9.77023 14.6136 9.41883C14.3564 9.00599 13.5984 7.90622 12.8946 8.72175C12.1975 9.48312 12.3836 9.87904 13.4664 9.90611C13.4908 9.87557 13.5253 9.85483 13.5637 9.84767C13.6021 9.84052 13.6418 9.84744 13.6755 9.86717C13.7092 9.8869 13.7347 9.91812 13.7473 9.9551C13.7598 9.99209 13.7586 10.0324 13.7439 10.0685C13.0401 11.4559 11.8489 10.1464 12.2076 9.01953C12.7863 7.18884 14.5764 8.42058 15.0975 9.46282C15.8995 11.0397 14.8403 13.219 13.436 14.1022Z" fill="#D8744C"/>
<path d="M19.7708 2.05206C19.5535 2.42156 19.358 2.80347 19.1854 3.19583C18.6414 4.331 18.4743 5.61023 18.7082 6.84707C19.0466 8.42397 20.363 10.7081 22.2512 9.3004C22.6626 9.03655 22.9699 8.63836 23.1209 8.17355C23.4841 7.00723 22.7453 6.43648 20.9044 6.4613C20.6202 6.76585 19.9129 7.5103 20.6709 7.85546C20.8536 7.93668 20.7217 8.21416 20.5389 8.16679C19.7403 7.98067 19.7843 7.23283 20.231 6.63388C20.4681 6.2752 20.8161 6.00397 21.2218 5.8616C21.6275 5.71924 22.0687 5.71355 22.4779 5.84542C23.4491 6.08906 23.8315 7.43586 23.51 8.27845C23.3537 8.71317 23.0898 9.10126 22.7431 9.40657C22.3964 9.71187 21.9781 9.92447 21.527 10.0245C18.5898 10.8028 17.8657 6.23796 18.38 4.32605C18.5758 3.65466 18.8317 3.0023 19.1448 2.37692L19.7708 2.05206Z" fill="#D8744C"/>
<path d="M29.9225 15.1444C29.5543 15.0732 29.213 14.9015 28.9365 14.6483C28.6599 14.395 28.4589 14.0701 28.3557 13.7096C28.1967 13.2156 28.4166 12.6031 28.5012 12.1259C28.7787 10.5897 27.97 9.79105 27.0902 8.71158C26.3457 7.79793 25.6418 6.58649 25.6452 5.3649C25.6943 4.37716 25.9637 3.4129 26.4337 2.54272C26.5655 2.54604 26.6969 2.56076 26.8262 2.58672C26.3954 3.27864 26.1237 4.05768 26.031 4.86747C26.0366 6.01514 26.4142 7.13004 27.1071 8.04495C27.8448 9.06012 28.7516 9.86212 28.9885 11.1412C29.0867 11.6759 28.8532 12.2105 28.7821 12.7249C28.596 14.0582 29.1611 14.6436 29.8819 14.7959C29.8954 14.9143 29.9123 15.0327 29.9225 15.1444Z" fill="#D8744C"/>
<path d="M29.2152 26.6497C29.1323 26.5418 29.0394 26.4421 28.9377 26.3519C28.3353 25.8206 27.5841 25.7766 26.6941 25.6108C26.1234 25.5448 25.5455 25.6397 25.0259 25.8849C24.9225 25.8877 24.82 25.9048 24.7213 25.9357C23.9295 26.1861 23.7062 25.6616 23.1038 25.4247C22.2293 25.0461 21.2522 24.9757 20.3324 25.2251C19.8113 25.3739 19.3172 25.7834 18.8232 25.9898C18.2175 26.2402 17.2395 26.0237 16.5932 25.9898C15.637 25.861 14.6652 26.0551 13.8319 26.5414C12.6848 27.2182 12.3261 28.5041 12.4073 29.746C12.417 29.9025 12.4351 30.0584 12.4614 30.2129C12.5103 30.5436 12.5907 30.8688 12.7017 31.1841C13.3785 33.1366 15.2599 34.2533 17.0703 35.0012C19.0465 35.8099 21.3036 36.2058 23.3542 35.8573C23.52 35.8302 23.6926 35.7964 23.8517 35.7558C24.8525 35.5353 25.7892 35.0877 26.5895 34.4475C27.3899 33.8074 28.0323 32.9919 28.4673 32.0639C29.2659 30.4566 30.3116 28.0912 29.2152 26.6497Z" fill="#8E3F20"/>
<path d="M23.8449 35.7321C23.6825 35.7727 23.5065 35.8066 23.3474 35.8336C23.7327 35.4374 24.029 34.9634 24.2163 34.4434C24.4036 33.9235 24.4777 33.3695 24.4337 32.8186C24.2408 31.2823 22.718 30.6089 21.307 31.0048C20.6038 31.1637 19.9542 31.5031 19.4221 31.9895C19.1412 32.2873 18.8232 32.6832 18.8705 33.1299C19.2394 34.0503 19.7808 34.2939 20.488 33.8608V33.1299C20.2816 32.9945 20.488 32.6663 20.6877 32.7915C22.3796 33.8067 19.0973 35.4986 18.5118 33.4243C17.967 31.4887 21.3442 30.1588 22.7722 30.5581C25.3169 31.2789 25.1714 33.9623 23.8449 35.7321Z" fill="#B75B3E"/>
<path d="M27.8312 32.8254C26.1393 34.3075 25.3001 31.7493 25.8009 30.3889C26.322 28.9542 27.4116 27.0964 28.9344 26.3282C29.0361 26.4185 29.1291 26.5182 29.2119 26.626C28.6305 26.9003 28.1156 27.2975 27.7027 27.7901C26.9861 28.5483 26.4525 29.4604 26.1427 30.4566C25.9024 31.0963 25.9231 31.8048 26.2002 32.4294L27.5538 32.5276C27.8426 32.205 28.0462 31.8153 28.1459 31.394L27.5571 30.3077C27.4759 30.4059 27.3406 30.3077 27.3609 30.1927L27.4083 29.9524C27.4161 29.9218 27.4323 29.8939 27.455 29.8718C27.4777 29.8497 27.506 29.8343 27.5368 29.8272C29.1442 29.5091 28.4911 32.2399 27.8312 32.8254Z" fill="#B75B3E"/>
<path d="M16.9147 32.064C16.4511 32.4023 15.49 32.8964 15.0163 32.2501C14.661 31.7594 14.5561 31.1131 15.111 30.7307C15.1355 30.7157 15.1636 30.7078 15.1923 30.7078C15.2209 30.7078 15.249 30.7157 15.2735 30.7307L15.4494 30.8288C15.4631 30.8375 15.474 30.8499 15.4808 30.8645C15.4876 30.8791 15.4901 30.8954 15.488 30.9115C15.4859 30.9275 15.4792 30.9426 15.4687 30.9549C15.4583 30.9672 15.4446 30.9763 15.4291 30.9811C14.4816 31.2011 16.2819 32.3516 16.9147 31.5665C17.4358 30.8424 17.4256 30.1791 16.8842 29.5768C16.4448 29.13 15.8833 28.8227 15.2701 28.6936C14.6999 28.5667 14.1032 28.6459 13.5859 28.9173C13.0686 29.1886 12.6642 29.6345 12.4445 30.1757C12.4182 30.0212 12.4001 29.8653 12.3904 29.7088C12.6047 29.2125 12.9849 28.8062 13.4657 28.5593C13.9466 28.3124 14.4983 28.2403 15.0264 28.3552C16.556 28.653 18.9112 30.6156 16.9147 32.064Z" fill="#B75B3E"/>
<path d="M24.9345 27.4619C24.9345 27.4619 21.6521 31.8948 17.4628 27.4619C17.4628 27.4619 20.0109 26.8054 20.9144 27.4619L21.2528 27.8003C21.2528 27.8003 22.2274 26.8054 24.9345 27.4619Z" fill="#B66C50"/>
<path d="M24.9345 27.4619C24.9345 27.4619 21.6521 31.8948 17.4628 27.4619C17.4628 27.4619 21.6521 29.1876 24.9345 27.4619Z" fill="#CD8B6D"/>
<path d="M24.7552 13.8552C23.4185 14.1022 22.2545 14.5319 20.8671 14.2748C20.1052 14.0775 19.3187 13.992 18.5322 14.021C18.4713 14.021 18.4442 14.1225 18.5322 14.136C20.7757 14.515 22.6504 14.938 24.8195 13.9668C24.8702 13.9364 24.8195 13.845 24.7552 13.8552Z" fill="#CD8B6D"/>
<path d="M23.6419 13.2697C23.0463 13.2269 22.4479 13.2416 21.8552 13.3137C21.0735 13.3577 20.302 13.1445 19.5169 13.1818C19.4994 13.1855 19.4838 13.195 19.4726 13.2089C19.4613 13.2228 19.4552 13.24 19.4552 13.2579C19.4552 13.2757 19.4613 13.293 19.4726 13.3069C19.4838 13.3207 19.4994 13.3303 19.5169 13.334C20.9212 13.4626 22.224 13.6724 23.6419 13.4119C23.7129 13.3983 23.7163 13.2765 23.6419 13.2697Z" fill="#CD8B6D"/>
<path d="M21.8958 23.0188C21.6623 22.6093 21.8958 21.8344 21.8958 21.3539C21.8958 20.7143 21.9466 20.0917 21.9466 19.4487C21.9466 18.9378 22.0785 17.7568 21.6894 17.2255C21.6556 16.7281 21.2055 16.7551 20.9889 17.1815C20.6269 17.8955 20.6878 18.8329 20.6878 19.6145C20.6878 20.2913 20.6708 20.976 20.637 21.6686C20.6133 22.1254 20.637 22.809 20.4509 23.2116C19.8519 22.8733 19.1244 22.5958 19.5914 23.5805C19.8249 24.0745 20.6269 25.1574 21.2427 25.0931C21.9195 25.0288 22.7993 23.9087 23.043 23.3301C23.4017 22.4435 22.3763 22.7108 21.8958 23.0188Z" fill="#CD8B6D"/>
</g>
</g>
</svg>
